A1																		
version=1																		
nRows=22
nColumns=19																		
inDegrees=yes																		
endheader
time	ground_force1_vx	ground_force1_vy	ground_force1_vz	ground_force1_px	ground_force1_py	ground_force1_pz	ground_torque1_x	ground_torque1_y	ground_torque1_z	ground_force2_vx	ground_force2_vy	ground_force2_vz	ground_force2_px	ground_force2_py	ground_force2_pz	ground_torque2_x	ground_torque2_y	ground_torque2_z
184.62500000	69.68597047	189.73707012	13.54167879	0.91130001	0.00000000	-0.67339957	0.00000680	2.19065260	0.00000956	-122.46527732	672.24868030	-43.25289584	1.39778242	0.00000000	-0.47128960	0.00001628	0.80766547	0.00006221
184.62600000	67.90732726	183.13558105	13.06372454	0.91122614	0.00000000	-0.67490641	0.00000660	2.12988884	0.00000924	-123.42019666	677.91382370	-43.91447967	1.39637437	0.00000000	-0.47076468	0.00001629	0.80757572	0.00006268
184.62700000	66.12938352	176.62086826	12.59417309	0.91115614	0.00000000	-0.67645208	0.00000641	2.06948214	0.00000891	-124.34476492	683.51660990	-44.56689277	1.39494375	0.00000000	-0.47023429	0.00001630	0.80725048	0.00006315
184.62800000	64.35332104	170.19502304	12.13308734	0.91108957	0.00000000	-0.67803611	0.00000622	2.00946127	0.00000859	-125.23869497	689.05595625	-45.20989978	1.39349234	0.00000000	-0.46969914	0.00001630	0.80669032	0.00006360
184.62900000	62.58031160	163.86005505	11.68052358	0.91102602	0.00000000	-0.67965798	0.00000603	1.94985455	0.00000827	-126.10172450	694.53080465	-45.84327817	1.39202189	0.00000000	-0.46915996	0.00001630	0.80589601	0.00006404
184.63000000	60.81151568	157.61789077	11.23653158	0.91096505	0.00000000	-0.68131711	0.00000584	1.89068984	0.00000796	-126.93361597	699.94012152	-46.46681836	1.39053411	0.00000000	-0.46861742	0.00001630	0.80486860	0.00006446
184.63100000	59.04808103	151.47037207	10.80115457	0.91090624	0.00000000	-0.68301292	0.00000565	1.83199451	0.00000765	-127.73415656	705.28289763	-47.08032372	1.38903068	0.00000000	-0.46807221	0.00001629	0.80360935	0.00006488
184.63200000	57.29114140	145.41925498	10.37442935	0.91084918	0.00000000	-0.68474473	0.00000547	1.77379540	0.00000735	-128.50315806	710.55814803	-47.68361068	1.38751325	0.00000000	-0.46752498	0.00001627	0.80211974	0.00006529
184.63300000	55.54181516	139.46620845	9.95638632	0.91079344	0.00000000	-0.68651187	0.00000529	1.71611883	0.00000705	-129.24045671	715.76491197	-48.27650873	1.38598343	0.00000000	-0.46697637	0.00001626	0.80040149	0.00006569
184.63400000	53.80120414	133.61281334	9.54704954	0.91073863	0.00000000	-0.68831358	0.00000510	1.65899052	0.00000676	-129.94591307	720.90225274	-48.85886040	1.38444278	0.00000000	-0.46642700	0.00001624	0.79845651	0.00006607
184.63500000	52.07039229	127.86056147	9.14643680	0.91068433	0.00000000	-0.69014910	0.00000493	1.60243559	0.00000647	-130.61941182	725.96925761	-49.43052125	1.38289284	0.00000000	-0.46587748	0.00001621	0.79628696	0.00006645
184.63600000	48.16129478	116.89733941	8.37392672	0.91063015	0.00000000	-0.69201760	0.00000454	1.47924034	0.00000591	-131.26086154	730.96503775	-49.99135982	1.38133510	0.00000000	-0.46532838	0.00001619	0.79389515	0.00006681
184.63700000	44.41263123	106.52022184	7.64347402	0.91057570	0.00000000	-0.69391821	0.00000417	1.36147861	0.00000539	-131.87019447	735.88872808	-50.54125757	1.37977102	0.00000000	-0.46478028	0.00001615	0.79128362	0.00006716
184.63800000	40.82373825	96.71672343	6.95393815	0.91052060	0.00000000	-0.69585005	0.00000382	1.24908945	0.00000489	-132.44736626	740.73948724	-51.08010879	1.37820201	0.00000000	-0.46423371	0.00001612	0.78845507	0.00006750
184.63900000	37.39375596	87.47407096	6.30417377	0.91046449	0.00000000	-0.69781216	0.00000349	1.14200731	0.00000442	-132.99235566	745.51649749	-51.60782047	1.37662943	0.00000000	-0.46368921	0.00001608	0.78541240	0.00006783
184.64000000	34.12163204	78.77922299	5.69303209	0.91040699	0.00000000	-0.69980356	0.00000318	1.04016218	0.00000398	-133.50516420	750.21896461	-52.12431220	1.37505463	0.00000000	-0.46314728	0.00001604	0.78215866	0.00006815
184.64100000	31.00612614	70.61888969	5.11936226	0.91034777	0.00000000	-0.70182325	0.00000288	0.94347972	0.00000357	-133.98581589	754.84611786	-52.62951599	1.37347889	0.00000000	-0.46260841	0.00001600	0.77869706	0.00006846
184.64200000	28.04581446	62.97955280	4.58201265	0.91028648	0.00000000	-0.70387016	0.00000259	0.85188141	0.00000318	-134.43435682	759.39720990	-53.12337614	1.37190345	0.00000000	-0.46207307	0.00001596	0.77503096	0.00006876
184.64300000	25.23909474	55.84748565	4.07983214	0.91022279	0.00000000	-0.70594320	0.00000232	0.76528469	0.00000282	-134.85085480	763.87151675	-53.60584900	1.37032951	0.00000000	-0.46154171	0.00001591	0.77116386	0.00006904
184.64400000	22.58419142	49.20877334	3.61167138	0.91015640	0.00000000	-0.70804127	0.00000207	0.68360312	0.00000248	-135.23539898	768.26833772	-54.07690283	1.36875825	0.00000000	-0.46101474	0.00001586	0.76709939	0.00006932
184.64500000	20.07916110	43.04933280	3.17638404	0.91008698	0.00000000	-0.71016319	0.00000184	0.60674657	0.00000217	-135.58809937	772.58699539	-54.53651753	1.36719077	0.00000000	-0.46049259	0.00001581	0.76284131	0.00006959
184.64600000	17.72189819	37.35493303	2.77282797	0.91001427	0.00000000	-0.71230778	0.00000161	0.53462137	0.00000188	-135.90908649	776.82683557	-54.98468443	1.36562816	0.00000000	-0.45997564	0.00001575	0.75839346	0.00006984
